<svg xmlns="http://www.w3.org/2000/svg" version="1.1" viewBox="-5.0 -10.0 110.0 135.0">
 <path d="m49.914 27.605-0.19922-11.832c1.1484-2.2773 3.4766-3.9102 5.9961-4.1914 1.0859-0.12109 3.0586-0.0625 4.543 1.5312l-3.6836 15.453c-2.1484-0.57812-4.3711-0.89844-6.6562-0.96094zm42.262 14.012-17.312 4.9648 0.64844 3.4883h3.1055c0.55469 0 1.0117 0.45313 1.0117 1.0117v1.4766l10.363-0.29297c2.2266-1.2539 3.75-3.6523 3.9141-6.1797 0.070312-1.0938-0.070312-3.0625-1.7305-4.4688zm-21.824-4.0273 10.906-7.6875 4.8438-3.8203c0.93359-0.73438 1.6172-1.6484 1.9727-2.6328 0.79688-2.2109 0.48828-4.5586-0.84766-6.4375-1.3008-1.832-3.3359-2.8789-5.5898-2.8789h-0.074219c-1.8242 0.019532-3.5547 0.9375-4.7227 2.4688-0.007813 0.015626-0.011719 0.03125-0.023438 0.046876l-10.613 16.605c1.543 1.1797 2.9336 2.6484 4.1445 4.3398zm-6.0156-5.6055 10.527-16.102c0.085938-0.13281 0.1875-0.25 0.27734-0.375 0.25391-0.42969 0.30469-0.94141 0.12109-1.3594-0.94531-2.1523-2.9141-3.6406-5.4023-4.0859-2.6602-0.47656-5.4531 0.33203-7.1211 2.0586-0.14844 0.15234-0.25781 0.37891-0.32422 0.65234l-0.050781 0.21875c-0.003906 0.039062 0.007813 0.078124 0 0.11719l-3.8242 16.07c2.0078 0.70312 3.9414 1.6406 5.793 2.8086zm7.4961 7.9297c0.83203 1.4883 1.5391 3.0977 2.1133 4.7891l18.141-5.1953c0.039062-0.011718 0.082031 0 0.12109-0.007812l0.21094-0.0625c0.27344-0.078125 0.49219-0.19922 0.63672-0.35547 1.6484-1.7422 2.3281-4.5742 1.7344-7.207-0.55859-2.4648-2.1367-4.3633-4.3281-5.2109-0.4375-0.16797-0.97266-0.089843-1.3984 0.21094l-6.5977 4.6523-10.633 8.3828zm5.7734 13.473v-1.293h-13.488c-0.56641 0-1.0117-0.44531-1.0117-1.0117 0-0.55469 0.44531-1.0117 1.0117-1.0117h9.1094c-1.1133-6.8555-4.5117-13.016-9.4844-16.078-13.805-9.1016-28.992-2.0742-37.211 3.2773-0.011719 0.53516-0.019531 1.0625-0.050781 1.5859-0.13281 2.0547-0.50391 5.0781-2.2344 7.5938-1.4961 2.1836-3.8516 3.7109-6.4609 4.1875-0.67578 0.12109-1.3438 0.19141-2.0039 0.19141-1.3945 0-2.6914-0.28125-3.8438-0.82812s-2.1523-1.3359-2.9609-2.3672c-0.92187 2.5078-1.2148 5.4922-0.89844 8.6172 0.6875 7.0469 4.6328 13.297 10.203 17.676 5.125 4.0352 10.82 6.4609 17.027 7.3711v9.8086h-6.0156c-1.7188 0-3.125 1.4062-3.125 3.125 0 0.27344 0.22266 0.48438 0.49609 0.48438h12.871c0.27344 0 0.48438-0.21094 0.48438-0.48438 0-1.4258-0.96094-2.6172-2.2656-2.9844v-9.668c4.2656 0.35547 8.7773 0.011719 13.52-0.99219v10.516h-6.0273c-1.7188 0-3.1133 1.4062-3.1133 3.125 0 0.27344 0.21094 0.48438 0.48438 0.48438h14.824c0.27344 0 0.48438-0.21094 0.48438-0.48438 0-1.7188-1.3945-3.125-3.125-3.125h-1.0938v-11.074c0.85938-0.22266 1.7305-0.45312 2.5977-0.71875 3.8828-1.1719 7.0273-3.0117 9.5273-5.3086-0.089843 0.011719-0.17188 0.011719-0.26172 0.011719h-11.961c-11.742 0-21.305-9.5547-21.305-21.305v-1.6289c0-0.55469 0.45312-1.0117 1.0117-1.0117 0.56641 0 1.0117 0.45312 1.0117 1.0117v1.6289c0 10.637 8.6562 19.285 19.285 19.285h11.961c3.2656 0 5.9961-2.2969 6.6758-5.3711-0.375 0.070312-0.75781 0.10938-1.1523 0.10938h-13.805c-0.55469 0-1.0117-0.44531-1.0117-1.0117 0-0.55469 0.45312-1.0117 1.0117-1.0117h13.805c2.0938 0 3.832-1.5469 4.1367-3.5586v-0.011719c0.03125-0.20312 0.050781-0.40625 0.050781-0.61719v-1.2148c-0.58594 0.19141-1.2148 0.29297-1.8711 0.29297h-13.215c-0.55469 0-1.0117-0.45312-1.0117-1.0117 0-0.55469 0.45312-1.0117 1.0117-1.0117h13.215c0.79688 0 1.5469-0.22266 2.1836-0.61719 0.85938-0.52734 1.5156-1.3438 1.8203-2.3242 0.12109-0.39453 0.19141-0.80859 0.19141-1.2539zm1.9102 1.1953c-0.29297 1.4648-1.0938 2.7422-2.2148 3.6523v2.2969c0 0.45312-0.050781 0.89062-0.14062 1.3164l4.7344 0.27344c1.4961 0.082031 3.0117-0.23438 4.2461-1.0938 2.1133-1.457 3.2578-4.043 2.5586-6.7031l-9.1836 0.26172zm-38.828-25.902c2.3086-0.57813 4.7227-0.94531 7.2031-1.043l-0.17578-10.48c-2.6875-0.57422-5.2188 0.69141-6.582 2.8672-0.79297 1.2656-1.0469 2.8008-0.89453 4.2891l0.44922 4.3711zm-26.504-6.6992c-3.6094 0.03125-6.7344 0.77734-9.1836 2.5898 0.070312-3.3281 2.1133-6.5625 6.1797-8.4531-0.03125-0.33203-0.050782-0.66797-0.050782-1.0117 0-5.4219 4.7539-9.8203 10.617-9.8203 3.7109 0 7.3398 1.9102 9.2227 5.1562 0.85938 1.4883 1.2148 3.0742 1.2031 4.6602-0.019531 2.375-0.87109 4.7734-2.0742 6.9062-1.75 3.0859-3.7617 5.9375-4.9258 9.3242-0.80859 2.3477-0.56641 4.9336-0.71875 7.4023-0.14062 2.2969-0.56641 4.6602-1.8711 6.5625-1.1914 1.7383-3.0938 2.9727-5.168 3.3477-5.957 1.1016-9.4648-3.793-8.0078-9.2539 0.6875-2.5703 2.1641-4.832 3.6289-7.0469 1.457-2.2266 2.9414-4.4883 3.6211-7.0586 0.12109-0.47656 0.20312-1 0.16016-1.4961-0.98047-0.47656-1.8711-1.082-2.6406-1.8086zm3.1211-7.2734c0 1.2852 1.043 2.3242 2.3242 2.3242 1.2852 0 2.3242-1.043 2.3242-2.3242 0-1.2852-1.043-2.3242-2.3242-2.3242-1.2852 0-2.3242 1.043-2.3242 2.3242z"/>
</svg>