<svg xmlns="http://www.w3.org/2000/svg" version="1.1" viewBox="-5.0 -10.0 110.0 135.0">
 <path d="m70.82 18.969c-4.582 1.8555-4.1836 4.875-5.2188 4.1836-0.29297-0.19531-0.57812-0.45312-0.86719-0.71484 1.4609-2.4141 3.4609-2.3164 5.9961-4.9609 6.4727-6.7539 1.4531-12.477 1.4531-12.477 2.0391 3.6016-0.17969 7.2383-0.17969 7.2383-0.80078-2.875-2.9102-3.0547-2.9102-3.0547 3.9297 4.875 0.54688 7.9688-0.71484 8.3047-1.2617 0.33984-2.6445 1.2109-2.6445 1.2109 1.2109-3.543-0.41406-5.3594-0.41406-5.3594 0.14453 0.80078 0.36328 4.5117-0.82422 5.7734-0.74219 0.78516-1.1211 1.6562-1.3047 2.1992-0.22656-0.078125-0.45312-0.11328-0.68359-0.054688l-0.49219 0.54688s-1.8906 0.10937-2.2383 0.09375c-0.34375-0.019532-0.74609-0.67188-0.74609-0.67188s-0.16016 0.050782-0.39062 0.13672c-0.21875-0.52344-0.62109-1.4297-1.0625-2.1406-0.65625-1.0547-0.28906-5.457 0.71094-5.4766 0 0-2.1445-0.03125-2.0195 4.293 0 0-3.2734-2.418-2.7109-4.4219 0.5625-2 2.5625-2.7812 2.8008-4.6016 0 0-2.8008 2.8008-3.2578 2.4023-0.45312-0.39844 0.25391-4.6758 1.4375-5.9492 0 0-4.5117 3.6367-2.3086 8.9297 0 0 0.035156 2.5078 3.457 5.3125 1.1211 0.92187 1.5352 1.6953 1.6719 2.2344-0.39844 0.23438-0.71875 0.5-0.74219 0.76563 0 0-0.75-1.3672-1.8906-2.0352-0.36719-0.21484-5.1562-3.5586-6.3281-2.0742-0.72656 0.92188 1.5039 2.9375 1.5039 4.6562 0 1.7227 2.6172 4.0039 4.6797 3.7344 0 0 0.94531-1.8438 1.6367-1.9531 0 0-1.418 1.2031-1.1016 3.6289 0.3125 2.4219-0.58203 1.9883-1.3594 3.8789-0.77734 1.8906 0.67969 1.8203 0.67969 1.8203s0.28906 1.3867 1.7812 1.3164c1.4922-0.074219 3.0391-0.98438 3.7109-1.1094 0 0-1.1289 0.61719-1.2344 0.82031 0 0 2.8555 0.60156 4.7461-0.65625 1.8906-1.2539 2.6562-2.4922 2.7656-4.2578 0 0 0.32812 3.1484-2.7266 4.5312-3.0547 1.3828-5.7656 0.89062-5.7656 0.89062s-0.17188 8.0234-2.1094 9.0898c0 0 0.82422-1.6992 1.0664-2.9102 0 0-2.8633 0.875-3.9766 1.2148-1.1172 0.33984-10.43-0.96875-14.406 0.14453-3.9766 1.1172-9.5312 6.8125-8.5117 11.762 1.0195 4.9453 3.0547 11.496-1.3086 13.605 0 0-1.0547 0.23438-0.875 2.1641 0.18359 1.9297-1.2188 4.0391-1.1641 4.9492 0.054687 0.91016 0.72656 1.5273 0.65625 2.6562-0.070313 1.1289-0.47266 7.0039-1.1094 8.3125-0.63672 1.3086-0.19922 2.4023-0.19922 2.4023l0.52734-0.14844 0.14453 1.9297 3.3633 0.14453s-1.1445-4.3125-1.1289-6.6953c0.019531-2.3828 0.33984-11.688 5.1406-13.727s7.0312-5.6758 5.2383-12.273c0 0 1.1172 2.3164 1.2422 5.1328 0 0 1.3281-0.19922 3.0391 0.72656 1.7109 0.92969 6.75 0.69141 6.75 0.69141l-0.11719-2.8203s1.4062 6.1602 2.7188 8.9727c1.3086 2.8125 0.96875 5.9648 2.0859 7.5664 1.1172 1.6016 1.0195 10.332 0.72656 11.496-0.28906 1.1641-0.14453 2.5234-0.14453 2.5234l0.67969 0.24219 0.32812 1.9453h3.6875s-2.2305-4.2188-2.7188-15.52c0 0 1.1641-3.7852-0.24219-6.7422-1.4062-2.9609-2.6172-11.785 1.6484-13.484 0 0-2.5703 1.7969-2.5234 5.6016 0 0 5.6992-0.74219 7.4453-4.832 0 0-0.58203 2.9648-3.2031 3.9844 0 0 2.4023 1.1641 5.2383 0.58203 2.8359-0.58203-0.21875 5.9297-2.1836 8.4062l-2.2188 1.3086-0.074219 0.38281s-2.0898 1.582-1.6016 4.3125l0.96484-0.74609-0.27344 0.83594s0.5625 0.035156 0.96484-0.38281c0.39844-0.41797 2.293-1.8008 2.5273-1.8906s1.4297-0.4375 2.0391-3.1055c0.60547-2.6641 3.0078-5.3828 3.9531-7.0078 0.94531-1.625 2.0391-3.8555 0-5.2148-2.0352-1.3594-5.0664-0.96875-3.0547-3.3242 2.0117-2.3516 1.0664-5.3242 0.92188-7.8164-0.14453-2.4922 1.2383-2.9297 0.58203-6.4922-0.65625-3.5664-1.3828-14.48-0.21875-16.371s2.5469 0.78125 4.7461-3.457c2.207-4.2383 2.625-6.9141-1.957-5.0586z"/>
 <path d="m43.609 71.102c3.4727-1.6719 6.0391-5.293 6.0391-5.293s-5.0586 0.074218-6.2773-0.76172-2.8359-0.76562-2.8359-0.76562-1.1445 4.9844-2.3633 5.6406-3.1836 1.8008 0.50781 6.1289c4.6445 5.4453 7.6758 13.312 7.6758 13.312l1.2383 0.070313 1.1641 1.5273 3.7461 0.28906s-2.1094-3.3125-5.8945-7.7852c-3.7812-4.4727-6.4766-10.691-3-12.363z"/>
</svg>