<svg xmlns:inkscape="http://www.inkscape.org/namespaces/inkscape" xmlns:sodipodi="http://sodipodi.sourceforge.net/DTD/sodipodi-0.dtd" xmlns="http://www.w3.org/2000/svg" xmlns:svg="http://www.w3.org/2000/svg" version="1.1" viewBox="0 0 541.5 420.3424125" x="0px" y="0px"><g transform="translate(-256.46806,-352.60947)"><path style="" d="m 636.46806,687.51792 c -24.33243,-5.3656 -39.26507,-18.59218 -66.6305,-59.01792 -4.09544,-6.05 -9.445,-14.2625 -11.88793,-18.25 -2.44293,-3.9875 -4.67566,-7.21765 -4.96163,-7.1781 -0.28597,0.0395 -2.51466,4.13722 -4.95265,9.10596 -2.438,4.96874 -8.738,15.61026 -14,23.64782 -8.22875,12.56917 -9.56729,15.19791 -9.56729,18.78905 0,6.81469 2.74166,8.74912 19.5,13.75865 11.83658,3.53828 20,10.0656 20,15.99164 0,2.20408 -10.6961,2.87906 -39,2.46113 -28.90896,-0.42687 -28.60774,-0.33451 -39.64948,-12.15789 -8.77109,-9.392 -14.24287,-17.30348 -15.4141,-22.28677 -1.19042,-5.06494 -0.5612,-9.2653 4.62609,-30.88149 2.37573,-9.9 5.91948,-25.875 7.87501,-35.5 1.95552,-9.625 3.78867,-18.50465 4.07366,-19.73255 l 0.51816,-2.23255 -22.76467,0.48559 c -25.67025,0.54758 -25.25845,0.4315 -30.87266,8.70189 -2.90404,4.27798 -5.61758,11.90106 -13.43505,37.74275 -1.74122,5.75582 -5.17883,14.98082 -7.63914,20.5 -2.46209,5.52318 -4.71599,12.29796 -5.01312,15.06843 -0.47686,4.44645 -0.22062,5.41291 2.19685,8.28591 3.32858,3.95579 5.63028,5.18456 17.97908,9.5982 14.77087,5.27931 23.82768,11.87387 25.10952,18.28307 l 0.62567,3.12838 -5.35791,0.66216 c -2.94685,0.36418 -18.66944,0.51513 -34.93908,0.33544 L 383.30572,686.5 l -4.90055,-3.03148 c -5.21346,-3.22504 -14.46135,-13.55723 -22.21784,-24.82283 l -4.71927,-6.85432 -0.62189,-18.14568 c -0.34204,-9.98013 -0.67954,-18.28502 -0.75,-18.45532 -0.0705,-0.17029 -3.9043,2.75471 -8.51964,6.5 -4.61534,3.7453 -11.56475,9.24272 -15.44313,12.21649 -3.87838,2.97377 -8.48283,7.39982 -10.23211,9.83565 -3.93399,5.47798 -6.28366,12.73419 -4.93782,15.24891 1.532,2.86256 6.81848,6.88645 13.4036,10.20235 3.35555,1.68967 8.03967,4.40192 10.40916,6.02724 4.28858,2.94167 8.24016,9.06371 6.78804,10.51643 -0.41923,0.41941 -13.66238,0.76256 -29.42922,0.76256 -27.68385,0 -28.80907,-0.076 -32.80982,-2.21565 -5.95708,-3.18594 -11.60494,-10.28665 -17.61044,-22.14054 l -5.24673,-10.35619 0.0675,-10.14381 c 0.0534,-8.02692 0.54376,-11.39593 2.34977,-16.14381 7.3643,-19.36018 6.87091,-16.96982 22.5278,-109.14233 4.12403,-24.27829 7.96003,-46.20291 8.52443,-48.72139 4.18939,-18.69392 17.69142,-40.62232 36.43294,-59.17009 20.27011,-20.06055 43.05908,-31.72851 74.0976,-37.93798 20.09586,-4.02032 33.83446,-4.66409 92.5,-4.33445 l 54.5,0.30624 10.77429,-5.22913 c 15.93851,-7.73549 20.09052,-8.78495 34.22571,-8.65085 11.19379,0.10619 13.62952,0.52529 36.25444,6.23805 26.52092,6.69649 34.82592,7.89544 58.52907,8.4495 l 15.7835,0.36894 5.7165,-4.47057 C 715.37423,358.0267 719.65769,356 723.9814,356 c 4.01267,0 7.64317,3.65214 8.5766,8.62772 0.64874,3.45809 -0.38543,11.27236 -2.04458,15.44899 -0.44878,1.12973 1.01793,2.73009 5.17388,5.64532 9.44787,6.62731 22.72151,18.71819 26.0258,23.70677 1.83011,2.76296 3.35286,6.64761 3.75665,9.58347 0.90259,6.56261 4.05694,10.77431 19.64592,26.23132 7.06881,7.00898 12.85239,13.51867 12.85239,14.466 0,2.58213 -13.78115,15.54652 -19.5,18.3443 -4.87816,2.3865 -5.75539,2.46093 -36,3.05439 -35.02104,0.68719 -30.99025,0.0302 -70.36229,11.46881 -12.29926,3.57326 -24.02235,7.34374 -26.05132,8.37884 -6.06235,3.09278 -11.85573,9.77371 -16.35593,18.86168 -4.09999,8.27975 -4.22922,8.83836 -4.19012,18.11281 0.0284,6.73606 0.83438,12.97469 2.72207,21.06958 3.95886,16.9767 6.47432,33.31532 8.19281,53.21471 1.21016,14.01312 2.15784,19.67523 4.53532,27.09721 4.84929,15.13849 9.9483,20.28324 22.00946,22.20687 7.52144,1.19959 18.03627,7.71689 20.6713,12.81246 1.33796,2.58734 1.30576,3.0369 -0.3486,4.86776 -7.15119,7.91414 -30.13784,11.99814 -46.8227,8.31891 z" fill="#000000"/></g></svg>